<mxfile host="Electron" modified="2023-09-03T13:48:15.246Z" agent="Mozilla/5.0 (Windows NT 10.0; Win64; x64) AppleWebKit/537.36 (KHTML, like Gecko) draw.io/21.6.5 Chrome/114.0.5735.243 Electron/25.3.1 Safari/537.36" etag="1ckrV3wljTDMqExxeFEh" version="21.6.5" type="device">
  <diagram id="kR3SxF-_0iwy6Lxm_fwL" name="Страница 1">
    <mxGraphModel dx="2026" dy="1171" grid="1" gridSize="10" guides="1" tooltips="1" connect="1" arrows="1" fold="1" page="1" pageScale="1" pageWidth="827" pageHeight="1169" math="0" shadow="0">
      <root>
        <mxCell id="0" />
        <mxCell id="1" parent="0" />
        <mxCell id="PucuYMoeTM68TqoEDj_h-1" value="" style="rounded=0;whiteSpace=wrap;html=1;fillColor=none;dashed=1;strokeColor=#CC00CC;" parent="1" vertex="1">
          <mxGeometry x="369" y="910" width="430" height="130" as="geometry" />
        </mxCell>
        <mxCell id="PucuYMoeTM68TqoEDj_h-21" value="&lt;h1&gt;Discrete output extended&lt;/h1&gt;&lt;p&gt;General algorithm for processing the control signal for a discrete output.&lt;/p&gt;" style="text;html=1;strokeColor=none;fillColor=none;spacing=5;spacingTop=-20;whiteSpace=wrap;overflow=hidden;rounded=0;shadow=0;glass=0;sketch=0;" parent="1" vertex="1">
          <mxGeometry x="61" y="210" width="310" height="130" as="geometry" />
        </mxCell>
        <mxCell id="PucuYMoeTM68TqoEDj_h-48" style="edgeStyle=orthogonalEdgeStyle;rounded=0;orthogonalLoop=1;jettySize=auto;html=1;entryX=0.5;entryY=0;entryDx=0;entryDy=0;" parent="1" source="PucuYMoeTM68TqoEDj_h-23" target="PucuYMoeTM68TqoEDj_h-28" edge="1">
          <mxGeometry relative="1" as="geometry" />
        </mxCell>
        <mxCell id="nT9eSExA7wS-BbLCAZf_-11" style="edgeStyle=orthogonalEdgeStyle;rounded=0;orthogonalLoop=1;jettySize=auto;html=1;entryX=1;entryY=0;entryDx=0;entryDy=0;exitX=0.75;exitY=1;exitDx=0;exitDy=0;dashed=1;dashPattern=1 1;strokeColor=#FF0000;startArrow=diamond;startFill=0;" parent="1" source="PucuYMoeTM68TqoEDj_h-23" target="PucuYMoeTM68TqoEDj_h-28" edge="1">
          <mxGeometry relative="1" as="geometry" />
        </mxCell>
        <mxCell id="nT9eSExA7wS-BbLCAZf_-12" style="edgeStyle=orthogonalEdgeStyle;rounded=0;orthogonalLoop=1;jettySize=auto;html=1;exitX=0.25;exitY=1;exitDx=0;exitDy=0;entryX=0;entryY=0;entryDx=0;entryDy=0;dashed=1;dashPattern=1 1;strokeColor=#00FF00;startArrow=diamond;startFill=0;" parent="1" source="PucuYMoeTM68TqoEDj_h-23" target="PucuYMoeTM68TqoEDj_h-28" edge="1">
          <mxGeometry relative="1" as="geometry" />
        </mxCell>
        <mxCell id="PucuYMoeTM68TqoEDj_h-23" value="Signal from the algorithm" style="rounded=1;whiteSpace=wrap;html=1;fillColor=default;strokeColor=default;shadow=0;glass=0;labelBackgroundColor=none;labelBorderColor=none;sketch=0;" parent="1" vertex="1">
          <mxGeometry x="540" y="220" width="120" height="60" as="geometry" />
        </mxCell>
        <mxCell id="PucuYMoeTM68TqoEDj_h-24" value="Phisical output" style="rounded=1;whiteSpace=wrap;html=1;fillColor=#e1d5e7;strokeColor=#9673a6;" parent="1" vertex="1">
          <mxGeometry x="541" y="1080" width="120" height="60" as="geometry" />
        </mxCell>
        <mxCell id="H6kXORB3dSBY_6T-Ker9-54" style="edgeStyle=orthogonalEdgeStyle;rounded=0;orthogonalLoop=1;jettySize=auto;html=1;entryX=0.5;entryY=0;entryDx=0;entryDy=0;" edge="1" parent="1" source="PucuYMoeTM68TqoEDj_h-26" target="H6kXORB3dSBY_6T-Ker9-53">
          <mxGeometry relative="1" as="geometry" />
        </mxCell>
        <mxCell id="H6kXORB3dSBY_6T-Ker9-55" style="edgeStyle=orthogonalEdgeStyle;rounded=0;orthogonalLoop=1;jettySize=auto;html=1;entryX=0;entryY=0;entryDx=0;entryDy=0;exitX=0;exitY=1;exitDx=0;exitDy=0;strokeColor=#CC00CC;dashed=1;dashPattern=1 1;startArrow=diamond;startFill=0;" edge="1" parent="1" source="PucuYMoeTM68TqoEDj_h-26" target="H6kXORB3dSBY_6T-Ker9-53">
          <mxGeometry relative="1" as="geometry" />
        </mxCell>
        <mxCell id="PucuYMoeTM68TqoEDj_h-26" value="CMD&lt;br&gt;START" style="rhombus;whiteSpace=wrap;html=1;rounded=1;shadow=0;glass=0;sketch=0;fillColor=#eeeeee;strokeColor=#36393d;labelBackgroundColor=none;labelBorderColor=none;" parent="1" vertex="1">
          <mxGeometry x="560" y="510" width="80" height="80" as="geometry" />
        </mxCell>
        <mxCell id="PucuYMoeTM68TqoEDj_h-49" style="edgeStyle=orthogonalEdgeStyle;rounded=0;orthogonalLoop=1;jettySize=auto;html=1;entryX=0.5;entryY=0;entryDx=0;entryDy=0;" parent="1" source="PucuYMoeTM68TqoEDj_h-28" target="H6kXORB3dSBY_6T-Ker9-1" edge="1">
          <mxGeometry relative="1" as="geometry">
            <mxPoint x="760" y="390" as="targetPoint" />
          </mxGeometry>
        </mxCell>
        <mxCell id="nT9eSExA7wS-BbLCAZf_-14" style="edgeStyle=orthogonalEdgeStyle;rounded=0;orthogonalLoop=1;jettySize=auto;html=1;exitX=0;exitY=1;exitDx=0;exitDy=0;dashed=1;dashPattern=1 1;strokeColor=#CC00CC;startArrow=diamond;startFill=0;entryX=0.25;entryY=0;entryDx=0;entryDy=0;" parent="1" source="PucuYMoeTM68TqoEDj_h-28" target="H6kXORB3dSBY_6T-Ker9-1" edge="1">
          <mxGeometry relative="1" as="geometry">
            <mxPoint x="490" y="380" as="targetPoint" />
          </mxGeometry>
        </mxCell>
        <mxCell id="PucuYMoeTM68TqoEDj_h-28" value="AUTO&lt;br&gt;START" style="rhombus;whiteSpace=wrap;html=1;rounded=1;shadow=0;glass=0;sketch=0;fillColor=#eeeeee;strokeColor=#36393d;" parent="1" vertex="1">
          <mxGeometry x="560" y="310" width="80" height="80" as="geometry" />
        </mxCell>
        <mxCell id="PucuYMoeTM68TqoEDj_h-51" style="edgeStyle=orthogonalEdgeStyle;rounded=0;orthogonalLoop=1;jettySize=auto;html=1;entryX=1;entryY=0.5;entryDx=0;entryDy=0;" parent="1" source="PucuYMoeTM68TqoEDj_h-30" target="PucuYMoeTM68TqoEDj_h-24" edge="1">
          <mxGeometry relative="1" as="geometry" />
        </mxCell>
        <mxCell id="PucuYMoeTM68TqoEDj_h-30" value="Inverse" style="shape=process;whiteSpace=wrap;html=1;backgroundOutline=1;fillColor=#eeeeee;strokeColor=#36393d;" parent="1" vertex="1">
          <mxGeometry x="661" y="1000" width="120" height="20" as="geometry" />
        </mxCell>
        <mxCell id="PucuYMoeTM68TqoEDj_h-31" value="NC" style="edgeStyle=orthogonalEdgeStyle;rounded=0;orthogonalLoop=1;jettySize=auto;html=1;entryX=0.5;entryY=0;entryDx=0;entryDy=0;" parent="1" source="PucuYMoeTM68TqoEDj_h-33" target="PucuYMoeTM68TqoEDj_h-30" edge="1">
          <mxGeometry relative="1" as="geometry">
            <mxPoint x="701" y="950" as="targetPoint" />
          </mxGeometry>
        </mxCell>
        <mxCell id="PucuYMoeTM68TqoEDj_h-32" value="NO" style="edgeStyle=orthogonalEdgeStyle;rounded=0;orthogonalLoop=1;jettySize=auto;html=1;entryX=0.5;entryY=0;entryDx=0;entryDy=0;" parent="1" source="PucuYMoeTM68TqoEDj_h-33" edge="1" target="PucuYMoeTM68TqoEDj_h-24">
          <mxGeometry x="-0.4167" relative="1" as="geometry">
            <mxPoint x="600.76" y="1060.28" as="targetPoint" />
            <mxPoint as="offset" />
          </mxGeometry>
        </mxCell>
        <mxCell id="PucuYMoeTM68TqoEDj_h-33" value="Signal&lt;br&gt;type" style="rhombus;whiteSpace=wrap;html=1;fillColor=#dae8fc;strokeColor=#00A800;rounded=1;shadow=0;glass=0;labelBackgroundColor=none;labelBorderColor=none;sketch=0;strokeWidth=2;" parent="1" vertex="1">
          <mxGeometry x="561" y="929" width="80" height="80" as="geometry" />
        </mxCell>
        <mxCell id="PucuYMoeTM68TqoEDj_h-41" value="&lt;div style=&quot;border-color: var(--border-color);&quot;&gt;Signal type selection:&lt;/div&gt;&lt;div style=&quot;border-color: var(--border-color);&quot;&gt;- normally open contact (NO)&lt;/div&gt;&lt;div style=&quot;border-color: var(--border-color);&quot;&gt;- normally closed contact (NC)&lt;/div&gt;" style="text;html=1;strokeColor=none;fillColor=none;align=left;verticalAlign=middle;whiteSpace=wrap;rounded=0;dashed=1;" parent="1" vertex="1">
          <mxGeometry x="373.5" y="980" width="210" height="60" as="geometry" />
        </mxCell>
        <mxCell id="nT9eSExA7wS-BbLCAZf_-17" style="edgeStyle=orthogonalEdgeStyle;rounded=0;orthogonalLoop=1;jettySize=auto;html=1;exitX=0.938;exitY=0.999;exitDx=0;exitDy=0;dashed=1;dashPattern=1 1;startArrow=diamond;startFill=0;strokeColor=#CC00CC;entryX=0.25;entryY=0;entryDx=0;entryDy=0;exitPerimeter=0;" parent="1" edge="1" target="PucuYMoeTM68TqoEDj_h-24" source="PucuYMoeTM68TqoEDj_h-41">
          <mxGeometry relative="1" as="geometry">
            <mxPoint x="581" y="1040" as="sourcePoint" />
            <mxPoint x="581" y="1059" as="targetPoint" />
          </mxGeometry>
        </mxCell>
        <mxCell id="H6kXORB3dSBY_6T-Ker9-36" style="edgeStyle=orthogonalEdgeStyle;rounded=0;orthogonalLoop=1;jettySize=auto;html=1;" edge="1" parent="1" source="H6kXORB3dSBY_6T-Ker9-1" target="PucuYMoeTM68TqoEDj_h-26">
          <mxGeometry relative="1" as="geometry" />
        </mxCell>
        <mxCell id="H6kXORB3dSBY_6T-Ker9-38" style="edgeStyle=orthogonalEdgeStyle;rounded=0;orthogonalLoop=1;jettySize=auto;html=1;entryX=0;entryY=0;entryDx=0;entryDy=0;exitX=0.25;exitY=1;exitDx=0;exitDy=0;strokeColor=#CC00CC;dashed=1;dashPattern=1 1;startArrow=diamond;startFill=0;" edge="1" parent="1" source="H6kXORB3dSBY_6T-Ker9-1" target="PucuYMoeTM68TqoEDj_h-26">
          <mxGeometry relative="1" as="geometry" />
        </mxCell>
        <mxCell id="H6kXORB3dSBY_6T-Ker9-1" value="&lt;div&gt;FC: drv_CMD&lt;/div&gt;" style="shape=process;whiteSpace=wrap;html=1;backgroundOutline=1;fillColor=#eeeeee;strokeColor=#36393d;" vertex="1" parent="1">
          <mxGeometry x="518.5" y="420" width="163" height="60" as="geometry" />
        </mxCell>
        <mxCell id="H6kXORB3dSBY_6T-Ker9-2" value="O" style="text;html=1;strokeColor=default;fillColor=default;align=center;verticalAlign=middle;whiteSpace=wrap;rounded=1;arcSize=0;" vertex="1" parent="1">
          <mxGeometry x="673.5" y="410" width="20" height="20" as="geometry" />
        </mxCell>
        <mxCell id="H6kXORB3dSBY_6T-Ker9-3" value="&lt;b&gt;Signals&lt;br&gt;&lt;/b&gt;" style="text;html=1;strokeColor=none;fillColor=none;align=left;verticalAlign=middle;whiteSpace=wrap;rounded=0;shadow=0;glass=0;labelBackgroundColor=#FFFFFF;labelBorderColor=none;sketch=0;" vertex="1" parent="1">
          <mxGeometry x="540" y="10" width="235" height="15" as="geometry" />
        </mxCell>
        <mxCell id="H6kXORB3dSBY_6T-Ker9-4" style="edgeStyle=orthogonalEdgeStyle;rounded=0;orthogonalLoop=1;jettySize=auto;html=1;dashed=1;dashPattern=1 1;strokeColor=#CC00CC;startArrow=diamond;startFill=0;" edge="1" parent="1">
          <mxGeometry relative="1" as="geometry">
            <mxPoint x="546" y="41" as="sourcePoint" />
            <mxPoint x="546" y="61" as="targetPoint" />
          </mxGeometry>
        </mxCell>
        <mxCell id="H6kXORB3dSBY_6T-Ker9-5" style="edgeStyle=orthogonalEdgeStyle;rounded=0;orthogonalLoop=1;jettySize=auto;html=1;dashed=1;dashPattern=1 1;strokeColor=#00FF00;startArrow=diamond;startFill=0;" edge="1" parent="1">
          <mxGeometry relative="1" as="geometry">
            <mxPoint x="546" y="70" as="sourcePoint" />
            <mxPoint x="546" y="90" as="targetPoint" />
          </mxGeometry>
        </mxCell>
        <mxCell id="H6kXORB3dSBY_6T-Ker9-6" value="BOOL = unknown" style="text;html=1;strokeColor=none;fillColor=none;align=left;verticalAlign=middle;whiteSpace=wrap;rounded=0;shadow=0;glass=0;labelBackgroundColor=#FFFFFF;labelBorderColor=none;sketch=0;" vertex="1" parent="1">
          <mxGeometry x="559" y="41" width="150" height="15" as="geometry" />
        </mxCell>
        <mxCell id="H6kXORB3dSBY_6T-Ker9-7" value="BOOL = TRUE" style="text;html=1;strokeColor=none;fillColor=none;align=left;verticalAlign=middle;whiteSpace=wrap;rounded=0;shadow=0;glass=0;labelBackgroundColor=#FFFFFF;labelBorderColor=none;sketch=0;" vertex="1" parent="1">
          <mxGeometry x="559" y="73" width="150" height="15" as="geometry" />
        </mxCell>
        <mxCell id="H6kXORB3dSBY_6T-Ker9-8" value="BOOL = FALSE" style="text;html=1;strokeColor=none;fillColor=none;align=left;verticalAlign=middle;whiteSpace=wrap;rounded=0;shadow=0;glass=0;labelBackgroundColor=#FFFFFF;labelBorderColor=none;sketch=0;" vertex="1" parent="1">
          <mxGeometry x="559" y="105.5" width="150" height="15" as="geometry" />
        </mxCell>
        <mxCell id="H6kXORB3dSBY_6T-Ker9-9" value="Value" style="text;html=1;strokeColor=none;fillColor=none;align=left;verticalAlign=middle;whiteSpace=wrap;rounded=0;shadow=0;glass=0;labelBackgroundColor=#FFFFFF;labelBorderColor=none;sketch=0;" vertex="1" parent="1">
          <mxGeometry x="559" y="137.5" width="150" height="15" as="geometry" />
        </mxCell>
        <mxCell id="H6kXORB3dSBY_6T-Ker9-10" style="edgeStyle=orthogonalEdgeStyle;rounded=0;orthogonalLoop=1;jettySize=auto;html=1;dashed=1;dashPattern=1 1;strokeColor=#FF0000;startArrow=diamond;startFill=0;" edge="1" parent="1">
          <mxGeometry relative="1" as="geometry">
            <mxPoint x="546" y="101" as="sourcePoint" />
            <mxPoint x="546" y="121" as="targetPoint" />
          </mxGeometry>
        </mxCell>
        <mxCell id="H6kXORB3dSBY_6T-Ker9-11" style="edgeStyle=orthogonalEdgeStyle;rounded=0;orthogonalLoop=1;jettySize=auto;html=1;dashed=1;dashPattern=1 1;strokeColor=#0000FF;startArrow=diamond;startFill=0;" edge="1" parent="1">
          <mxGeometry relative="1" as="geometry">
            <mxPoint x="546" y="130" as="sourcePoint" />
            <mxPoint x="546" y="149.99999999999994" as="targetPoint" />
          </mxGeometry>
        </mxCell>
        <mxCell id="H6kXORB3dSBY_6T-Ker9-12" value="A" style="text;html=1;strokeColor=default;fillColor=default;align=center;verticalAlign=middle;whiteSpace=wrap;rounded=1;" vertex="1" parent="1">
          <mxGeometry x="280" y="38" width="20" height="20" as="geometry" />
        </mxCell>
        <mxCell id="H6kXORB3dSBY_6T-Ker9-13" value="O" style="text;html=1;strokeColor=default;fillColor=default;align=center;verticalAlign=middle;whiteSpace=wrap;rounded=1;" vertex="1" parent="1">
          <mxGeometry x="280" y="70" width="20" height="20" as="geometry" />
        </mxCell>
        <mxCell id="H6kXORB3dSBY_6T-Ker9-14" value="Administrator" style="text;html=1;strokeColor=none;fillColor=none;align=left;verticalAlign=middle;whiteSpace=wrap;rounded=0;shadow=0;glass=0;labelBackgroundColor=#FFFFFF;labelBorderColor=none;sketch=0;" vertex="1" parent="1">
          <mxGeometry x="305" y="41" width="150" height="15" as="geometry" />
        </mxCell>
        <mxCell id="H6kXORB3dSBY_6T-Ker9-15" value="Operator" style="text;html=1;strokeColor=none;fillColor=none;align=left;verticalAlign=middle;whiteSpace=wrap;rounded=0;shadow=0;glass=0;labelBackgroundColor=#FFFFFF;labelBorderColor=none;sketch=0;" vertex="1" parent="1">
          <mxGeometry x="305" y="73" width="150" height="15" as="geometry" />
        </mxCell>
        <mxCell id="H6kXORB3dSBY_6T-Ker9-16" value="U" style="text;html=1;strokeColor=default;fillColor=default;align=center;verticalAlign=middle;whiteSpace=wrap;rounded=1;" vertex="1" parent="1">
          <mxGeometry x="280" y="102" width="20" height="20" as="geometry" />
        </mxCell>
        <mxCell id="H6kXORB3dSBY_6T-Ker9-17" value="User" style="text;html=1;strokeColor=none;fillColor=none;align=left;verticalAlign=middle;whiteSpace=wrap;rounded=0;shadow=0;glass=0;labelBackgroundColor=#FFFFFF;labelBorderColor=none;sketch=0;" vertex="1" parent="1">
          <mxGeometry x="305" y="105.5" width="150" height="15" as="geometry" />
        </mxCell>
        <mxCell id="H6kXORB3dSBY_6T-Ker9-18" value="&lt;b&gt;Restricting Access Levels on the HMI&lt;/b&gt;" style="text;html=1;strokeColor=none;fillColor=none;align=left;verticalAlign=middle;whiteSpace=wrap;rounded=0;shadow=0;glass=0;labelBackgroundColor=#FFFFFF;labelBorderColor=none;sketch=0;" vertex="1" parent="1">
          <mxGeometry x="275" y="10" width="235" height="15" as="geometry" />
        </mxCell>
        <mxCell id="H6kXORB3dSBY_6T-Ker9-19" value="-" style="text;html=1;strokeColor=default;fillColor=default;align=center;verticalAlign=middle;whiteSpace=wrap;rounded=1;" vertex="1" parent="1">
          <mxGeometry x="280" y="134" width="20" height="20" as="geometry" />
        </mxCell>
        <mxCell id="H6kXORB3dSBY_6T-Ker9-20" value="No limits" style="text;html=1;strokeColor=none;fillColor=none;align=left;verticalAlign=middle;whiteSpace=wrap;rounded=0;shadow=0;glass=0;labelBackgroundColor=#FFFFFF;labelBorderColor=none;sketch=0;" vertex="1" parent="1">
          <mxGeometry x="305" y="137.5" width="150" height="15" as="geometry" />
        </mxCell>
        <mxCell id="H6kXORB3dSBY_6T-Ker9-21" value="" style="ellipse;whiteSpace=wrap;html=1;rounded=1;shadow=0;glass=0;labelBackgroundColor=none;labelBorderColor=none;sketch=0;" vertex="1" parent="1">
          <mxGeometry x="40" y="10" width="20" height="20" as="geometry" />
        </mxCell>
        <mxCell id="H6kXORB3dSBY_6T-Ker9-22" value="" style="ellipse;whiteSpace=wrap;html=1;rounded=1;shadow=0;glass=0;labelBackgroundColor=none;labelBorderColor=none;sketch=0;fillColor=#eeeeee;strokeColor=#36393d;" vertex="1" parent="1">
          <mxGeometry x="40" y="40" width="20" height="20" as="geometry" />
        </mxCell>
        <mxCell id="H6kXORB3dSBY_6T-Ker9-23" value="" style="ellipse;whiteSpace=wrap;html=1;rounded=1;shadow=0;glass=0;labelBackgroundColor=none;labelBorderColor=none;sketch=0;fillColor=#d5e8d4;strokeColor=#82b366;" vertex="1" parent="1">
          <mxGeometry x="40" y="70" width="20" height="20" as="geometry" />
        </mxCell>
        <mxCell id="H6kXORB3dSBY_6T-Ker9-24" value="" style="ellipse;whiteSpace=wrap;html=1;rounded=1;shadow=0;glass=0;labelBackgroundColor=none;labelBorderColor=none;sketch=0;fillColor=#dae8fc;strokeColor=#00A800;strokeWidth=2;" vertex="1" parent="1">
          <mxGeometry x="40" y="100" width="20" height="20" as="geometry" />
        </mxCell>
        <mxCell id="H6kXORB3dSBY_6T-Ker9-25" value="" style="ellipse;whiteSpace=wrap;html=1;rounded=1;shadow=0;glass=0;labelBackgroundColor=none;labelBorderColor=none;sketch=0;fillColor=#CCE5FF;strokeColor=#000000;strokeWidth=2;" vertex="1" parent="1">
          <mxGeometry x="40" y="130" width="20" height="20" as="geometry" />
        </mxCell>
        <mxCell id="H6kXORB3dSBY_6T-Ker9-26" value="Global variables" style="text;html=1;strokeColor=none;fillColor=none;align=left;verticalAlign=middle;whiteSpace=wrap;rounded=0;shadow=0;glass=0;labelBackgroundColor=#FFFFFF;labelBorderColor=none;sketch=0;" vertex="1" parent="1">
          <mxGeometry x="66" y="12.5" width="150" height="15" as="geometry" />
        </mxCell>
        <mxCell id="H6kXORB3dSBY_6T-Ker9-27" value="Internal variables" style="text;html=1;strokeColor=none;fillColor=none;align=left;verticalAlign=middle;whiteSpace=wrap;rounded=0;shadow=0;glass=0;labelBackgroundColor=#FFFFFF;labelBorderColor=none;sketch=0;" vertex="1" parent="1">
          <mxGeometry x="66" y="45" width="150" height="15" as="geometry" />
        </mxCell>
        <mxCell id="H6kXORB3dSBY_6T-Ker9-28" value="Control from the algorithm" style="text;html=1;strokeColor=none;fillColor=none;align=left;verticalAlign=middle;whiteSpace=wrap;rounded=0;shadow=0;glass=0;labelBackgroundColor=#FFFFFF;labelBorderColor=none;sketch=0;" vertex="1" parent="1">
          <mxGeometry x="66" y="72.5" width="154" height="15" as="geometry" />
        </mxCell>
        <mxCell id="H6kXORB3dSBY_6T-Ker9-29" value="Control from the HMI" style="text;html=1;strokeColor=none;fillColor=none;align=left;verticalAlign=middle;whiteSpace=wrap;rounded=0;shadow=0;glass=0;labelBackgroundColor=#FFFFFF;labelBorderColor=none;sketch=0;" vertex="1" parent="1">
          <mxGeometry x="66" y="105" width="150" height="15" as="geometry" />
        </mxCell>
        <mxCell id="H6kXORB3dSBY_6T-Ker9-30" value="Display on HMI" style="text;html=1;strokeColor=none;fillColor=none;align=left;verticalAlign=middle;whiteSpace=wrap;rounded=0;shadow=0;glass=0;labelBackgroundColor=#FFFFFF;labelBorderColor=none;sketch=0;" vertex="1" parent="1">
          <mxGeometry x="66" y="135" width="150" height="15" as="geometry" />
        </mxCell>
        <mxCell id="H6kXORB3dSBY_6T-Ker9-31" value="" style="ellipse;whiteSpace=wrap;html=1;rounded=1;shadow=0;glass=0;labelBackgroundColor=none;labelBorderColor=none;sketch=0;fillColor=#CCE5FF;strokeColor=#FF0000;strokeWidth=1;" vertex="1" parent="1">
          <mxGeometry x="40" y="160" width="20" height="20" as="geometry" />
        </mxCell>
        <mxCell id="H6kXORB3dSBY_6T-Ker9-32" value="HMI alarms" style="text;html=1;strokeColor=none;fillColor=none;align=left;verticalAlign=middle;whiteSpace=wrap;rounded=0;shadow=0;glass=0;labelBackgroundColor=#FFFFFF;labelBorderColor=none;sketch=0;" vertex="1" parent="1">
          <mxGeometry x="66" y="165" width="150" height="15" as="geometry" />
        </mxCell>
        <mxCell id="H6kXORB3dSBY_6T-Ker9-33" value="" style="ellipse;whiteSpace=wrap;html=1;rounded=1;shadow=0;glass=0;labelBackgroundColor=none;labelBorderColor=none;sketch=0;fillColor=#e1d5e7;strokeColor=#9673a6;" vertex="1" parent="1">
          <mxGeometry x="40" y="190" width="20" height="20" as="geometry" />
        </mxCell>
        <mxCell id="H6kXORB3dSBY_6T-Ker9-34" value="External signals" style="text;html=1;strokeColor=none;fillColor=none;align=left;verticalAlign=middle;whiteSpace=wrap;rounded=0;shadow=0;glass=0;labelBackgroundColor=#FFFFFF;labelBorderColor=none;sketch=0;" vertex="1" parent="1">
          <mxGeometry x="66" y="195" width="150" height="15" as="geometry" />
        </mxCell>
        <mxCell id="H6kXORB3dSBY_6T-Ker9-35" value="&lt;h1&gt;FB: drv_DO_ext&lt;/h1&gt;" style="text;html=1;strokeColor=none;fillColor=none;spacing=5;spacingTop=-20;whiteSpace=wrap;overflow=hidden;rounded=0;shadow=0;glass=0;sketch=0;" vertex="1" parent="1">
          <mxGeometry x="680" y="10" width="190" height="40" as="geometry" />
        </mxCell>
        <mxCell id="H6kXORB3dSBY_6T-Ker9-114" style="edgeStyle=orthogonalEdgeStyle;rounded=0;orthogonalLoop=1;jettySize=auto;html=1;entryX=0.219;entryY=-0.01;entryDx=0;entryDy=0;entryPerimeter=0;" edge="1" parent="1" source="H6kXORB3dSBY_6T-Ker9-39" target="PucuYMoeTM68TqoEDj_h-1">
          <mxGeometry relative="1" as="geometry" />
        </mxCell>
        <mxCell id="H6kXORB3dSBY_6T-Ker9-39" value="" style="rounded=0;whiteSpace=wrap;html=1;fillColor=none;dashed=1;strokeColor=#CC00CC;" vertex="1" parent="1">
          <mxGeometry y="630" width="490" height="230" as="geometry" />
        </mxCell>
        <mxCell id="H6kXORB3dSBY_6T-Ker9-40" value="Impulse mode" style="text;html=1;strokeColor=none;fillColor=none;align=left;verticalAlign=middle;whiteSpace=wrap;rounded=0;dashed=1;fontStyle=1" vertex="1" parent="1">
          <mxGeometry x="2" y="839" width="90" height="20" as="geometry" />
        </mxCell>
        <mxCell id="H6kXORB3dSBY_6T-Ker9-42" value="&lt;div&gt;Start timer&lt;/div&gt;&lt;div&gt;&quot;minimum signal presence time&quot;&lt;/div&gt;" style="shape=process;whiteSpace=wrap;html=1;backgroundOutline=1;fillColor=#eeeeee;strokeColor=#36393d;" vertex="1" parent="1">
          <mxGeometry x="122.5" y="650" width="163" height="60" as="geometry" />
        </mxCell>
        <mxCell id="H6kXORB3dSBY_6T-Ker9-43" style="edgeStyle=orthogonalEdgeStyle;rounded=0;orthogonalLoop=1;jettySize=auto;html=1;entryX=0;entryY=0.5;entryDx=0;entryDy=0;" edge="1" parent="1" source="H6kXORB3dSBY_6T-Ker9-44" target="H6kXORB3dSBY_6T-Ker9-42">
          <mxGeometry relative="1" as="geometry" />
        </mxCell>
        <mxCell id="H6kXORB3dSBY_6T-Ker9-44" value="Setpoint" style="rounded=1;whiteSpace=wrap;html=1;fillColor=#dae8fc;strokeColor=#00A800;shadow=0;glass=0;labelBackgroundColor=none;labelBorderColor=none;sketch=0;strokeWidth=2;" vertex="1" parent="1">
          <mxGeometry x="10" y="670" width="80" height="20" as="geometry" />
        </mxCell>
        <mxCell id="H6kXORB3dSBY_6T-Ker9-45" value="A" style="text;html=1;strokeColor=default;fillColor=default;align=center;verticalAlign=middle;whiteSpace=wrap;rounded=1;" vertex="1" parent="1">
          <mxGeometry x="80" y="660" width="20" height="20" as="geometry" />
        </mxCell>
        <mxCell id="H6kXORB3dSBY_6T-Ker9-70" style="edgeStyle=orthogonalEdgeStyle;rounded=0;orthogonalLoop=1;jettySize=auto;html=1;entryX=0;entryY=0.25;entryDx=0;entryDy=0;entryPerimeter=0;strokeColor=#00FF00;dashed=1;dashPattern=1 1;startArrow=diamond;startFill=0;" edge="1" parent="1" source="H6kXORB3dSBY_6T-Ker9-46" target="H6kXORB3dSBY_6T-Ker9-68">
          <mxGeometry relative="1" as="geometry" />
        </mxCell>
        <mxCell id="H6kXORB3dSBY_6T-Ker9-46" value="Start" style="rounded=0;whiteSpace=wrap;html=1;fillColor=#eeeeee;strokeColor=#36393d;" vertex="1" parent="1">
          <mxGeometry x="10" y="722" width="54" height="20" as="geometry" />
        </mxCell>
        <mxCell id="H6kXORB3dSBY_6T-Ker9-57" value="FALSE" style="edgeStyle=orthogonalEdgeStyle;rounded=0;orthogonalLoop=1;jettySize=auto;html=1;entryX=0.5;entryY=0;entryDx=0;entryDy=0;" edge="1" parent="1" source="H6kXORB3dSBY_6T-Ker9-53" target="H6kXORB3dSBY_6T-Ker9-56">
          <mxGeometry relative="1" as="geometry" />
        </mxCell>
        <mxCell id="H6kXORB3dSBY_6T-Ker9-58" style="edgeStyle=orthogonalEdgeStyle;rounded=0;orthogonalLoop=1;jettySize=auto;html=1;entryX=0;entryY=0;entryDx=0;entryDy=0;exitX=0;exitY=1;exitDx=0;exitDy=0;strokeColor=#CC00CC;dashed=1;dashPattern=1 1;startArrow=diamond;startFill=0;" edge="1" parent="1" source="H6kXORB3dSBY_6T-Ker9-53" target="H6kXORB3dSBY_6T-Ker9-56">
          <mxGeometry relative="1" as="geometry" />
        </mxCell>
        <mxCell id="H6kXORB3dSBY_6T-Ker9-63" value="TRUE" style="edgeStyle=orthogonalEdgeStyle;rounded=0;orthogonalLoop=1;jettySize=auto;html=1;entryX=1;entryY=0.5;entryDx=0;entryDy=0;" edge="1" parent="1" source="H6kXORB3dSBY_6T-Ker9-53" target="H6kXORB3dSBY_6T-Ker9-62">
          <mxGeometry relative="1" as="geometry" />
        </mxCell>
        <mxCell id="H6kXORB3dSBY_6T-Ker9-64" style="edgeStyle=orthogonalEdgeStyle;rounded=0;orthogonalLoop=1;jettySize=auto;html=1;entryX=1;entryY=1;entryDx=0;entryDy=0;exitX=0;exitY=1;exitDx=0;exitDy=0;strokeColor=#CC00CC;dashed=1;dashPattern=1 1;startArrow=diamond;startFill=0;" edge="1" parent="1" source="H6kXORB3dSBY_6T-Ker9-53" target="H6kXORB3dSBY_6T-Ker9-62">
          <mxGeometry relative="1" as="geometry" />
        </mxCell>
        <mxCell id="H6kXORB3dSBY_6T-Ker9-53" value="Impulse&lt;br&gt;mode" style="rhombus;whiteSpace=wrap;html=1;rounded=1;shadow=0;glass=0;sketch=0;fillColor=#dae8fc;strokeColor=#00A800;labelBackgroundColor=none;labelBorderColor=none;strokeWidth=2;" vertex="1" parent="1">
          <mxGeometry x="560" y="640" width="80" height="80" as="geometry" />
        </mxCell>
        <mxCell id="H6kXORB3dSBY_6T-Ker9-59" value="FALSE" style="edgeStyle=orthogonalEdgeStyle;rounded=0;orthogonalLoop=1;jettySize=auto;html=1;entryX=0.5;entryY=0;entryDx=0;entryDy=0;" edge="1" parent="1" source="H6kXORB3dSBY_6T-Ker9-56" target="PucuYMoeTM68TqoEDj_h-33">
          <mxGeometry relative="1" as="geometry" />
        </mxCell>
        <mxCell id="H6kXORB3dSBY_6T-Ker9-60" style="edgeStyle=orthogonalEdgeStyle;rounded=0;orthogonalLoop=1;jettySize=auto;html=1;entryX=0.491;entryY=0.002;entryDx=0;entryDy=0;exitX=0;exitY=1;exitDx=0;exitDy=0;entryPerimeter=0;strokeColor=#CC00CC;dashed=1;dashPattern=1 1;startArrow=diamond;startFill=0;" edge="1" parent="1" source="H6kXORB3dSBY_6T-Ker9-56" target="PucuYMoeTM68TqoEDj_h-1">
          <mxGeometry relative="1" as="geometry" />
        </mxCell>
        <mxCell id="H6kXORB3dSBY_6T-Ker9-94" value="TRUE" style="edgeStyle=orthogonalEdgeStyle;rounded=0;orthogonalLoop=1;jettySize=auto;html=1;entryX=0;entryY=0.5;entryDx=0;entryDy=0;" edge="1" parent="1" source="H6kXORB3dSBY_6T-Ker9-56" target="H6kXORB3dSBY_6T-Ker9-93">
          <mxGeometry relative="1" as="geometry" />
        </mxCell>
        <mxCell id="H6kXORB3dSBY_6T-Ker9-56" value="PWM&lt;br&gt;mode" style="rhombus;whiteSpace=wrap;html=1;rounded=1;shadow=0;glass=0;sketch=0;fillColor=#dae8fc;strokeColor=#00A800;labelBackgroundColor=none;labelBorderColor=none;strokeWidth=2;" vertex="1" parent="1">
          <mxGeometry x="560" y="770" width="80" height="80" as="geometry" />
        </mxCell>
        <mxCell id="H6kXORB3dSBY_6T-Ker9-65" value="START" style="edgeStyle=orthogonalEdgeStyle;rounded=0;orthogonalLoop=1;jettySize=auto;html=1;entryX=1;entryY=0.5;entryDx=0;entryDy=0;" edge="1" parent="1" source="H6kXORB3dSBY_6T-Ker9-62" target="H6kXORB3dSBY_6T-Ker9-42">
          <mxGeometry x="-0.4258" relative="1" as="geometry">
            <mxPoint as="offset" />
          </mxGeometry>
        </mxCell>
        <mxCell id="H6kXORB3dSBY_6T-Ker9-90" value="STOP" style="edgeStyle=orthogonalEdgeStyle;rounded=0;orthogonalLoop=1;jettySize=auto;html=1;entryX=0.5;entryY=0;entryDx=0;entryDy=0;strokeColor=default;startArrow=none;startFill=0;" edge="1" parent="1" source="H6kXORB3dSBY_6T-Ker9-62" target="H6kXORB3dSBY_6T-Ker9-85">
          <mxGeometry x="-0.1304" relative="1" as="geometry">
            <Array as="points">
              <mxPoint x="430" y="730" />
              <mxPoint x="276" y="730" />
            </Array>
            <mxPoint as="offset" />
          </mxGeometry>
        </mxCell>
        <mxCell id="H6kXORB3dSBY_6T-Ker9-62" value="Command&lt;br&gt;state" style="rhombus;whiteSpace=wrap;html=1;rounded=1;shadow=0;glass=0;sketch=0;fillColor=#eeeeee;strokeColor=#36393d;labelBackgroundColor=none;labelBorderColor=none;" vertex="1" parent="1">
          <mxGeometry x="390" y="640" width="80" height="80" as="geometry" />
        </mxCell>
        <mxCell id="H6kXORB3dSBY_6T-Ker9-86" style="edgeStyle=orthogonalEdgeStyle;rounded=0;orthogonalLoop=1;jettySize=auto;html=1;entryX=0;entryY=0.25;entryDx=0;entryDy=0;strokeColor=#00FF00;dashed=1;dashPattern=1 1;startArrow=diamond;startFill=0;" edge="1" parent="1" source="H6kXORB3dSBY_6T-Ker9-68" target="H6kXORB3dSBY_6T-Ker9-85">
          <mxGeometry relative="1" as="geometry" />
        </mxCell>
        <mxCell id="H6kXORB3dSBY_6T-Ker9-68" value="AND" style="shape=or;whiteSpace=wrap;html=1;fillColor=#eeeeee;strokeColor=#36393d;rounded=1;shadow=0;glass=0;sketch=0;labelBackgroundColor=none;labelBorderColor=none;" vertex="1" parent="1">
          <mxGeometry x="106" y="720" width="38" height="50" as="geometry" />
        </mxCell>
        <mxCell id="H6kXORB3dSBY_6T-Ker9-71" style="edgeStyle=orthogonalEdgeStyle;rounded=0;orthogonalLoop=1;jettySize=auto;html=1;entryX=0;entryY=0.75;entryDx=0;entryDy=0;entryPerimeter=0;strokeColor=#FF0000;dashed=1;dashPattern=1 1;startArrow=diamond;startFill=0;" edge="1" parent="1" source="H6kXORB3dSBY_6T-Ker9-69" target="H6kXORB3dSBY_6T-Ker9-68">
          <mxGeometry relative="1" as="geometry" />
        </mxCell>
        <mxCell id="H6kXORB3dSBY_6T-Ker9-69" value="Timer Q" style="rounded=0;whiteSpace=wrap;html=1;fillColor=#eeeeee;strokeColor=#36393d;" vertex="1" parent="1">
          <mxGeometry x="10" y="748" width="54" height="20" as="geometry" />
        </mxCell>
        <mxCell id="H6kXORB3dSBY_6T-Ker9-79" style="edgeStyle=orthogonalEdgeStyle;rounded=0;orthogonalLoop=1;jettySize=auto;html=1;entryX=0;entryY=0.25;entryDx=0;entryDy=0;entryPerimeter=0;strokeColor=#00FF00;dashed=1;dashPattern=1 1;startArrow=diamond;startFill=0;" edge="1" parent="1" source="H6kXORB3dSBY_6T-Ker9-80" target="H6kXORB3dSBY_6T-Ker9-81">
          <mxGeometry relative="1" as="geometry" />
        </mxCell>
        <mxCell id="H6kXORB3dSBY_6T-Ker9-80" value="Start" style="rounded=0;whiteSpace=wrap;html=1;fillColor=#eeeeee;strokeColor=#36393d;" vertex="1" parent="1">
          <mxGeometry x="10" y="792" width="54" height="20" as="geometry" />
        </mxCell>
        <mxCell id="H6kXORB3dSBY_6T-Ker9-88" style="edgeStyle=orthogonalEdgeStyle;rounded=0;orthogonalLoop=1;jettySize=auto;html=1;entryX=0;entryY=0.75;entryDx=0;entryDy=0;strokeColor=#FF0000;dashed=1;dashPattern=1 1;startArrow=diamond;startFill=0;" edge="1" parent="1" source="H6kXORB3dSBY_6T-Ker9-81" target="H6kXORB3dSBY_6T-Ker9-85">
          <mxGeometry relative="1" as="geometry" />
        </mxCell>
        <mxCell id="H6kXORB3dSBY_6T-Ker9-81" value="AND" style="shape=or;whiteSpace=wrap;html=1;fillColor=#eeeeee;strokeColor=#36393d;rounded=1;shadow=0;glass=0;sketch=0;labelBackgroundColor=none;labelBorderColor=none;" vertex="1" parent="1">
          <mxGeometry x="106" y="790" width="38" height="50" as="geometry" />
        </mxCell>
        <mxCell id="H6kXORB3dSBY_6T-Ker9-82" style="edgeStyle=orthogonalEdgeStyle;rounded=0;orthogonalLoop=1;jettySize=auto;html=1;entryX=0;entryY=0.75;entryDx=0;entryDy=0;entryPerimeter=0;strokeColor=#00FF00;dashed=1;dashPattern=1 1;startArrow=diamond;startFill=0;" edge="1" parent="1" source="H6kXORB3dSBY_6T-Ker9-83" target="H6kXORB3dSBY_6T-Ker9-81">
          <mxGeometry relative="1" as="geometry" />
        </mxCell>
        <mxCell id="H6kXORB3dSBY_6T-Ker9-83" value="Timer Q" style="rounded=0;whiteSpace=wrap;html=1;fillColor=#eeeeee;strokeColor=#36393d;" vertex="1" parent="1">
          <mxGeometry x="10" y="818" width="54" height="20" as="geometry" />
        </mxCell>
        <mxCell id="H6kXORB3dSBY_6T-Ker9-89" style="edgeStyle=orthogonalEdgeStyle;rounded=0;orthogonalLoop=1;jettySize=auto;html=1;entryX=0.25;entryY=0;entryDx=0;entryDy=0;strokeColor=#CC00CC;dashed=1;dashPattern=1 1;startArrow=diamond;startFill=0;" edge="1" parent="1" source="H6kXORB3dSBY_6T-Ker9-85" target="PucuYMoeTM68TqoEDj_h-1">
          <mxGeometry relative="1" as="geometry" />
        </mxCell>
        <mxCell id="H6kXORB3dSBY_6T-Ker9-85" value="Command signal" style="rounded=0;whiteSpace=wrap;html=1;fillColor=#eeeeee;strokeColor=#36393d;" vertex="1" parent="1">
          <mxGeometry x="216" y="750" width="120" height="60" as="geometry" />
        </mxCell>
        <mxCell id="H6kXORB3dSBY_6T-Ker9-91" value="A" style="text;html=1;strokeColor=default;fillColor=default;align=center;verticalAlign=middle;whiteSpace=wrap;rounded=1;" vertex="1" parent="1">
          <mxGeometry x="620" y="640" width="20" height="20" as="geometry" />
        </mxCell>
        <mxCell id="H6kXORB3dSBY_6T-Ker9-92" value="A" style="text;html=1;strokeColor=default;fillColor=default;align=center;verticalAlign=middle;whiteSpace=wrap;rounded=1;" vertex="1" parent="1">
          <mxGeometry x="620" y="772" width="20" height="20" as="geometry" />
        </mxCell>
        <mxCell id="H6kXORB3dSBY_6T-Ker9-100" value="START" style="edgeStyle=orthogonalEdgeStyle;rounded=0;orthogonalLoop=1;jettySize=auto;html=1;entryX=0;entryY=0.5;entryDx=0;entryDy=0;" edge="1" parent="1" source="H6kXORB3dSBY_6T-Ker9-93" target="H6kXORB3dSBY_6T-Ker9-95">
          <mxGeometry relative="1" as="geometry" />
        </mxCell>
        <mxCell id="H6kXORB3dSBY_6T-Ker9-108" value="STOP" style="edgeStyle=orthogonalEdgeStyle;rounded=0;orthogonalLoop=1;jettySize=auto;html=1;entryX=0.5;entryY=0;entryDx=0;entryDy=0;" edge="1" parent="1" source="H6kXORB3dSBY_6T-Ker9-93" target="H6kXORB3dSBY_6T-Ker9-107">
          <mxGeometry relative="1" as="geometry" />
        </mxCell>
        <mxCell id="H6kXORB3dSBY_6T-Ker9-93" value="Command&lt;br&gt;state" style="rhombus;whiteSpace=wrap;html=1;rounded=1;shadow=0;glass=0;sketch=0;fillColor=#eeeeee;strokeColor=#36393d;labelBackgroundColor=none;labelBorderColor=none;" vertex="1" parent="1">
          <mxGeometry x="720" y="640" width="80" height="80" as="geometry" />
        </mxCell>
        <mxCell id="H6kXORB3dSBY_6T-Ker9-106" style="edgeStyle=orthogonalEdgeStyle;rounded=0;orthogonalLoop=1;jettySize=auto;html=1;" edge="1" parent="1" source="H6kXORB3dSBY_6T-Ker9-95" target="H6kXORB3dSBY_6T-Ker9-101">
          <mxGeometry relative="1" as="geometry" />
        </mxCell>
        <mxCell id="H6kXORB3dSBY_6T-Ker9-95" value="&lt;div&gt;Start cyclic timer &quot;total PWM time with % output status&quot;&lt;/div&gt;" style="shape=process;whiteSpace=wrap;html=1;backgroundOutline=1;fillColor=#eeeeee;strokeColor=#36393d;" vertex="1" parent="1">
          <mxGeometry x="864" y="650" width="163" height="60" as="geometry" />
        </mxCell>
        <mxCell id="H6kXORB3dSBY_6T-Ker9-99" style="edgeStyle=orthogonalEdgeStyle;rounded=0;orthogonalLoop=1;jettySize=auto;html=1;entryX=1;entryY=0.5;entryDx=0;entryDy=0;" edge="1" parent="1" source="H6kXORB3dSBY_6T-Ker9-97" target="H6kXORB3dSBY_6T-Ker9-95">
          <mxGeometry relative="1" as="geometry" />
        </mxCell>
        <mxCell id="H6kXORB3dSBY_6T-Ker9-97" value="Setpoint" style="rounded=1;whiteSpace=wrap;html=1;fillColor=#dae8fc;strokeColor=#00A800;shadow=0;glass=0;labelBackgroundColor=none;labelBorderColor=none;sketch=0;strokeWidth=2;" vertex="1" parent="1">
          <mxGeometry x="1050" y="670" width="80" height="20" as="geometry" />
        </mxCell>
        <mxCell id="H6kXORB3dSBY_6T-Ker9-98" value="A" style="text;html=1;strokeColor=default;fillColor=default;align=center;verticalAlign=middle;whiteSpace=wrap;rounded=1;" vertex="1" parent="1">
          <mxGeometry x="1120" y="660" width="20" height="20" as="geometry" />
        </mxCell>
        <mxCell id="H6kXORB3dSBY_6T-Ker9-109" value="YES" style="edgeStyle=orthogonalEdgeStyle;rounded=0;orthogonalLoop=1;jettySize=auto;html=1;entryX=1;entryY=0.25;entryDx=0;entryDy=0;strokeColor=#00FF00;dashed=1;dashPattern=1 1;startArrow=diamond;startFill=0;" edge="1" parent="1" source="H6kXORB3dSBY_6T-Ker9-101" target="H6kXORB3dSBY_6T-Ker9-107">
          <mxGeometry relative="1" as="geometry" />
        </mxCell>
        <mxCell id="H6kXORB3dSBY_6T-Ker9-110" value="NO" style="edgeStyle=orthogonalEdgeStyle;rounded=0;orthogonalLoop=1;jettySize=auto;html=1;entryX=1;entryY=0.75;entryDx=0;entryDy=0;exitX=0.5;exitY=1;exitDx=0;exitDy=0;strokeColor=#FF0000;dashed=1;dashPattern=1 1;startArrow=diamond;startFill=0;" edge="1" parent="1" source="H6kXORB3dSBY_6T-Ker9-101" target="H6kXORB3dSBY_6T-Ker9-107">
          <mxGeometry relative="1" as="geometry" />
        </mxCell>
        <mxCell id="H6kXORB3dSBY_6T-Ker9-101" value="AP% &amp;lt; SP%" style="rhombus;whiteSpace=wrap;html=1;rounded=1;shadow=0;glass=0;sketch=0;fillColor=#eeeeee;strokeColor=#36393d;labelBackgroundColor=none;labelBorderColor=none;" vertex="1" parent="1">
          <mxGeometry x="905.5" y="730" width="80" height="80" as="geometry" />
        </mxCell>
        <mxCell id="H6kXORB3dSBY_6T-Ker9-105" style="edgeStyle=orthogonalEdgeStyle;rounded=0;orthogonalLoop=1;jettySize=auto;html=1;entryX=1;entryY=0.5;entryDx=0;entryDy=0;" edge="1" parent="1" source="H6kXORB3dSBY_6T-Ker9-102" target="H6kXORB3dSBY_6T-Ker9-101">
          <mxGeometry relative="1" as="geometry" />
        </mxCell>
        <mxCell id="H6kXORB3dSBY_6T-Ker9-102" value="Setpoint" style="rounded=1;whiteSpace=wrap;html=1;fillColor=#dae8fc;strokeColor=#00A800;shadow=0;glass=0;labelBackgroundColor=none;labelBorderColor=none;sketch=0;strokeWidth=2;" vertex="1" parent="1">
          <mxGeometry x="1050" y="760" width="80" height="20" as="geometry" />
        </mxCell>
        <mxCell id="H6kXORB3dSBY_6T-Ker9-103" value="A" style="text;html=1;strokeColor=default;fillColor=default;align=center;verticalAlign=middle;whiteSpace=wrap;rounded=1;" vertex="1" parent="1">
          <mxGeometry x="1120" y="750" width="20" height="20" as="geometry" />
        </mxCell>
        <mxCell id="H6kXORB3dSBY_6T-Ker9-111" style="edgeStyle=orthogonalEdgeStyle;rounded=0;orthogonalLoop=1;jettySize=auto;html=1;entryX=0.75;entryY=0;entryDx=0;entryDy=0;strokeColor=#CC00CC;dashed=1;dashPattern=1 1;startArrow=diamond;startFill=0;exitX=0;exitY=0.5;exitDx=0;exitDy=0;" edge="1" parent="1" source="H6kXORB3dSBY_6T-Ker9-107" target="PucuYMoeTM68TqoEDj_h-1">
          <mxGeometry relative="1" as="geometry" />
        </mxCell>
        <mxCell id="H6kXORB3dSBY_6T-Ker9-107" value="Command signal" style="rounded=0;whiteSpace=wrap;html=1;fillColor=#eeeeee;strokeColor=#36393d;" vertex="1" parent="1">
          <mxGeometry x="730" y="755" width="120" height="60" as="geometry" />
        </mxCell>
        <mxCell id="H6kXORB3dSBY_6T-Ker9-115" style="edgeStyle=orthogonalEdgeStyle;rounded=0;orthogonalLoop=1;jettySize=auto;html=1;entryX=0.783;entryY=-0.01;entryDx=0;entryDy=0;entryPerimeter=0;" edge="1" parent="1" source="H6kXORB3dSBY_6T-Ker9-112" target="PucuYMoeTM68TqoEDj_h-1">
          <mxGeometry relative="1" as="geometry" />
        </mxCell>
        <mxCell id="H6kXORB3dSBY_6T-Ker9-112" value="" style="rounded=0;whiteSpace=wrap;html=1;fillColor=none;dashed=1;strokeColor=#CC00CC;" vertex="1" parent="1">
          <mxGeometry x="660" y="630" width="490" height="230" as="geometry" />
        </mxCell>
        <mxCell id="H6kXORB3dSBY_6T-Ker9-113" value="PWM mode" style="text;html=1;strokeColor=none;fillColor=none;align=left;verticalAlign=middle;whiteSpace=wrap;rounded=0;dashed=1;fontStyle=1" vertex="1" parent="1">
          <mxGeometry x="1060" y="839" width="90" height="20" as="geometry" />
        </mxCell>
      </root>
    </mxGraphModel>
  </diagram>
</mxfile>
